<svg width="29" height="28" viewBox="0 0 29 28" fill="none" xmlns="http://www.w3.org/2000/svg">
<path d="M27.9752 11.1733H26.856V11.1156H14.3509V16.6734H22.2034C21.0578 19.9087 17.9795 22.2312 14.3509 22.2312C9.74698 22.2312 6.01422 18.4984 6.01422 13.8945C6.01422 9.29056 9.74698 5.5578 14.3509 5.5578C16.4761 5.5578 18.4095 6.35951 19.8816 7.66907L23.8117 3.73901C21.3301 1.42627 18.0107 0 14.3509 0C6.67768 0 0.456421 6.22126 0.456421 13.8945C0.456421 21.5677 6.67768 27.789 14.3509 27.789C22.0242 27.789 28.2454 21.5677 28.2454 13.8945C28.2454 12.9629 28.1495 12.0535 27.9752 11.1733Z" fill="#FFC107"/>
<path d="M2.05835 7.42718L6.62339 10.7751C7.85861 7.71688 10.8501 5.55768 14.3508 5.55768C16.476 5.55768 18.4094 6.35939 19.8815 7.66895L23.8116 3.73889C21.33 1.42615 18.0106 -0.00012207 14.3508 -0.00012207C9.01394 -0.00012207 4.38568 3.0129 2.05835 7.42718Z" fill="#FF3D00"/>
<path d="M14.3509 27.7888C17.9398 27.7888 21.2009 26.4154 23.6665 24.1818L19.3661 20.5429C17.9711 21.5995 16.2371 22.231 14.3509 22.231C10.7369 22.231 7.66834 19.9266 6.51232 16.7108L1.98132 20.2017C4.28086 24.7015 8.9508 27.7888 14.3509 27.7888Z" fill="#4CAF50"/>
<path d="M27.9751 11.1732H26.8559V11.1155H14.3508V16.6733H22.2033C21.6531 18.2274 20.6534 19.5676 19.364 20.5437C19.3647 20.543 19.3654 20.543 19.366 20.5423L23.6664 24.1812C23.3621 24.4577 28.2453 20.8417 28.2453 13.8944C28.2453 12.9628 28.1495 12.0534 27.9751 11.1732Z" fill="#1976D2"/>
</svg>
